<svg xmlns="http://www.w3.org/2000/svg" width="108.432" height="87.778" viewBox="0 0 108.432 87.778">
  <path id="Path_3603" data-name="Path 3603" d="M69.76-42.865c0,17.616,10.934,27.943,25.21,27.943a21.728,21.728,0,0,0,22.172-22.172c0-12.757-8.808-20.35-21.565-21.565-5.163-.607-6.986-2.43-6.986-6.986,0-7.29,9.416-19.742,26.121-31.588a3.491,3.491,0,0,0,1.822-2.734A2.936,2.936,0,0,0,113.8-102.7a4.234,4.234,0,0,0-2.734,1.215C81-82.35,69.76-64.734,69.76-42.865Zm-61.05,0c0,17.616,10.934,27.943,25.21,27.943A21.728,21.728,0,0,0,56.092-37.094c0-12.757-8.5-20.35-21.565-21.565-5.163-.607-6.986-2.43-6.986-6.986,0-7.29,9.416-19.742,26.121-31.588a3.491,3.491,0,0,0,1.822-2.734,2.936,2.936,0,0,0-2.734-2.734,4.234,4.234,0,0,0-2.734,1.215C19.948-82.35,8.71-64.734,8.71-42.865Z" transform="translate(-8.71 102.7)" fill="#dbdbdb"/>
</svg>
