<svg id="Group_2997" data-name="Group 2997" xmlns="http://www.w3.org/2000/svg" width="39.777" height="39.777" viewBox="0 0 39.777 39.777">
  <path id="Path_839" data-name="Path 839" d="M39.777,19.889a19.889,19.889,0,1,0-23,19.647v-13.9h-5.05V19.889h5.05V15.507c0-4.985,2.969-7.738,7.512-7.738a30.584,30.584,0,0,1,4.452.388v4.894H26.237c-2.471,0-3.241,1.533-3.241,3.106v3.731h5.516l-.882,5.749H23v13.9A19.894,19.894,0,0,0,39.777,19.889Z" fill="#1877f2"/>
  <path id="Path_840" data-name="Path 840" d="M317.9,217.869l.882-5.749h-5.516v-3.731c0-1.573.77-3.106,3.241-3.106h2.508v-4.894a30.584,30.584,0,0,0-4.452-.388c-4.543,0-7.512,2.753-7.512,7.738v4.382H302v5.749h5.05v13.9a20.095,20.095,0,0,0,6.215,0v-13.9Z" transform="translate(-290.269 -192.231)" fill="#fff"/>
</svg>
