<svg xmlns="http://www.w3.org/2000/svg" width="37.487" height="26.943" viewBox="0 0 37.487 26.943">
  <path id="Path_575" data-name="Path 575" d="M5591.46,314.921c-3.5-.165-5.1-1.877-5.39-5.27a90.554,90.554,0,0,1-.007-15.528c.3-3.548,2.054-5.328,5.721-5.55a210.649,210.649,0,0,1,25.3-.006c3.942.237,5.6,2.041,5.873,5.882a103.531,103.531,0,0,1,.011,14.6c-.281,3.988-1.89,5.794-5.98,5.98S5595.862,315.129,5591.46,314.921Zm8.231-5.72,12.932-6.969-12.932-7.085Z" transform="translate(-5585.734 -288.191)" fill="#b3b3b3"/>
</svg>
