<svg xmlns="http://www.w3.org/2000/svg" width="40" height="40" viewBox="0 0 40 40">
  <g id="Group_2995" data-name="Group 2995" transform="translate(-0.064 0.223)">
    <rect id="Rectangle_79" data-name="Rectangle 79" width="40" height="40" rx="4" transform="translate(0.064 -0.223)" fill="#00a4de"/>
    <g id="Group_549" data-name="Group 549" transform="translate(7.834 9.823)">
      <path id="Path_845" data-name="Path 845" d="M127.962,147.019a4.693,4.693,0,0,0-3.3-1.483,5.332,5.332,0,0,0,2.74-1.509,3.951,3.951,0,0,0,.855-2.679,4.8,4.8,0,0,0-.576-2.365,4.258,4.258,0,0,0-1.675-1.623,7.187,7.187,0,0,0-2.286-.75,33.661,33.661,0,0,0-4.685-.209H113.6v19.824h5.6A36.435,36.435,0,0,0,124.07,156a7.932,7.932,0,0,0,2.5-.777,4.581,4.581,0,0,0,1.911-1.867,5.685,5.685,0,0,0,.672-2.8A5.078,5.078,0,0,0,127.962,147.019Zm-9.336-6.23h1.16a5.447,5.447,0,0,1,2.7.454,1.737,1.737,0,0,1,.689,1.571,1.611,1.611,0,0,1-.742,1.518,5.835,5.835,0,0,1-2.74.436h-1.073Zm4.607,11.369a5.561,5.561,0,0,1-2.714.48h-1.893v-4.319H120.6a5.132,5.132,0,0,1,2.7.5,1.97,1.97,0,0,1,.733,1.745,1.627,1.627,0,0,1-.8,1.605Z" transform="translate(-113.6 -136.4)" fill="#fff"/>
      <path id="Path_846" data-name="Path 846" d="M331.313,306.1a2.513,2.513,0,1,0,2.513,2.513,2.513,2.513,0,0,0-2.513-2.513Z" transform="translate(-310.023 -291.293)" fill="#fff"/>
      <rect id="Rectangle_80" data-name="Rectangle 80" width="4.363" height="13.221" transform="translate(19.108)" fill="#fff"/>
    </g>
  </g>
</svg>
