<svg id="Group_760" data-name="Group 760" xmlns="http://www.w3.org/2000/svg" width="17.517" height="35.186" viewBox="0 0 17.517 35.186">
  <g id="Group_759" data-name="Group 759" transform="translate(0)">
    <path id="Path_577" data-name="Path 577" d="M3977.174,1112.866c-.489.014-.525.485-.525.734q0,6.719,0,13.438c0,.785-.015,1.8-.769,1.8-2.433,0-1.282.039-4.622.039-.792,0-.886.019-.887-.772q0-7.3,0-14.6c0-.733-.013-.746-.729-.747-1.21,0-1.744,0-2.954,0-.849,0-.78-.078-.808-.791-.041-1.044-.041-3.975-.041-4.83,0-.332.107-.44.438-.435,1.167.016,2.333-.011,3.5.015.414.009.551-.1.546-.533-.019-1.656-.05-3.314.016-4.968a7.235,7.235,0,0,1,5.975-7.234,17.38,17.38,0,0,1,4.69-.246c.657.019,1.246.093,1.97.144.3.021.362.142.355.407-.042,1.656-.08,3.311-.1,4.967,0,.329-.152.382-.437.382-1.385,0-2.771-.111-4.154.027a1.755,1.755,0,0,0-1.809,1.8c-.146,1.635-.029,3.277-.068,4.915-.009.393.254.324.48.324q2.738,0,5.476,0c.652,0,.687,0,.621.666-.168,1.706-.466,3.353-.747,4.9-.1.544-.278.58-.729.582C3979.9,1112.863,3979.05,1112.861,3977.174,1112.866Z" transform="translate(-3965.837 -1093.693)" fill="#b3b3b3"/>
  </g>
</svg>
