<svg xmlns="http://www.w3.org/2000/svg" width="47.2" height="31.141" viewBox="0 0 47.2 31.141">
  <g id="_983_mo_h" data-name="983_mo_h" transform="translate(-3 -9)">
    <g id="Group_3228" data-name="Group 3228" transform="translate(41.907 17.293)">
      <path id="線_193" data-name="線 193" d="M6.257,1.073H.037A1.037,1.037,0,0,1,.037-1h6.22a1.037,1.037,0,1,1,0,2.073Z" transform="translate(1 4.11)" fill="#fff"/>
      <path id="線_194" data-name="線 194" d="M.037,7.293A1.037,1.037,0,0,1-1,6.257V.037a1.037,1.037,0,0,1,2.073,0v6.22A1.037,1.037,0,0,1,.037,7.293Z" transform="translate(4.11 1)" fill="#fff"/>
    </g>
    <g id="Group_3229" data-name="Group 3229" transform="translate(3 9)">
      <path id="線_195" data-name="線 195" d="M6.257,1.073H.037A1.037,1.037,0,0,1,.037-1h6.22a1.037,1.037,0,1,1,0,2.073Z" transform="translate(1 4.11)" fill="#fff"/>
      <path id="線_196" data-name="線 196" d="M.037,7.293A1.037,1.037,0,0,1-1,6.257V.037a1.037,1.037,0,0,1,2.073,0v6.22A1.037,1.037,0,0,1,.037,7.293Z" transform="translate(4.11 1)" fill="#fff"/>
    </g>
    <path id="パス_3644" data-name="パス 3644" d="M14.037,27.38A1.037,1.037,0,0,1,13,26.343v-3.23A2.116,2.116,0,0,1,15.113,21h7.536a1.037,1.037,0,0,1,0,2.073H15.113a.04.04,0,0,0-.04.04v3.23A1.037,1.037,0,0,1,14.037,27.38Z" transform="translate(1.599 0.919)" fill="#fff"/>
    <path id="パス_3645" data-name="パス 3645" d="M16.42,33.456H12.113A2.116,2.116,0,0,1,10,31.343v-3.23A2.116,2.116,0,0,1,12.113,26H21.8a1.037,1.037,0,0,1,0,2.073H12.113a.04.04,0,0,0-.04.04v3.23a.04.04,0,0,0,.04.04H16.42a1.037,1.037,0,1,1,0,2.073Z" transform="translate(1.159 1.302)" fill="#fff"/>
    <path id="パス_3646" data-name="パス 3646" d="M24.8,38.456H15.113A2.116,2.116,0,0,1,13,36.343v-3.23A2.116,2.116,0,0,1,15.113,31h6.459a1.037,1.037,0,1,1,0,2.073H15.113a.04.04,0,0,0-.04.04v3.23a.04.04,0,0,0,.04.04H24.8a1.037,1.037,0,1,1,0,2.073Z" transform="translate(1.655 1.684)" fill="#fff"/>
    <path id="パス_3647" data-name="パス 3647" d="M25.723,23.456a1.037,1.037,0,0,1-1.037-1.037V18.113a.04.04,0,0,0-.04-.04H15.037a1.037,1.037,0,1,1,0-2.073h9.609a2.116,2.116,0,0,1,2.113,2.113V22.42A1.037,1.037,0,0,1,25.723,23.456Z" transform="translate(2.126 0.536)" fill="#fff"/>
    <path id="パス_3648" data-name="パス 3648" d="M15.343,23.456h-3.23A2.116,2.116,0,0,1,10,21.343v-3.23A2.116,2.116,0,0,1,12.113,16H17.5a1.037,1.037,0,1,1,0,2.073H12.113a.04.04,0,0,0-.04.04v3.23a.04.04,0,0,0,.04.04h3.23a1.037,1.037,0,0,1,0,2.073Z" transform="translate(1.084 0.536)" fill="#fff"/>
    <g id="Group_3234" data-name="Group 3234" transform="translate(26.237 23.513)">
      <path id="楕円形_62" data-name="楕円形 62" d="M7.293-1A8.293,8.293,0,1,1-1,7.293,8.3,8.3,0,0,1,7.293-1Zm0,14.513a6.22,6.22,0,1,0-6.22-6.22A6.227,6.227,0,0,0,7.293,13.513Z" transform="translate(1 1)" fill="#fff"/>
      <path id="パス_3649" data-name="パス 3649" d="M31.19,29.725a3.271,3.271,0,0,1-3.154-2.42,1.037,1.037,0,0,1,2-.537,1.192,1.192,0,0,0,2.3,0,1.037,1.037,0,1,1,2,.537A3.271,3.271,0,0,1,31.19,29.725Z" transform="translate(-22.681 -22.212)" fill="#fff"/>
      <path id="線_197" data-name="線 197" d="M4.183,1.073H.037A1.037,1.037,0,0,1,.037-1H4.183a1.037,1.037,0,1,1,0,2.073Z" transform="translate(6.346 9.293)" fill="#fff"/>
      <path id="線_198" data-name="線 198" d="M.037,5.22A1.037,1.037,0,0,1-1,4.183V.037a1.037,1.037,0,0,1,2.073,0V4.183A1.037,1.037,0,0,1,.037,5.22Z" transform="translate(8.292 7.22)" fill="#fff"/>
    </g>
  </g>
</svg>
