<?xml version="1.0" encoding="utf-8"?>
<!-- Generator: Adobe Illustrator 23.0.0, SVG Export Plug-In . SVG Version: 6.00 Build 0)  -->
<svg version="1.1" id="Layer_1" xmlns="http://www.w3.org/2000/svg" xmlns:xlink="http://www.w3.org/1999/xlink" x="0px" y="0px"
	 viewBox="0 0 47.2 47.2" style="enable-background:new 0 0 47.2 47.2;" xml:space="preserve">
<style type="text/css">
	.st0{fill:#FFFFFF;}
</style>
<g id="_983_mo_h" transform="translate(-3 -9)">
	<g id="Group_3228" transform="translate(41.907 17.293)">
		<path id="線_193" class="st0" d="M7.2,13.2H1c-0.6,0-1-0.5-1-1.1c0-0.5,0.5-1,1-1h6.2c0.6,0,1.1,0.4,1.1,1
			C8.3,12.7,7.9,13.2,7.2,13.2C7.3,13.2,7.2,13.2,7.2,13.2z"/>
		<path id="線_194" class="st0" d="M4.1,16.3c-0.6,0-1-0.5-1-1V9.1c0-0.6,0.5-1,1.1-1c0.5,0,1,0.5,1,1v6.2
			C5.2,15.8,4.7,16.3,4.1,16.3z"/>
	</g>
	<g id="Group_3229" transform="translate(3 9)">
		<path id="線_195" class="st0" d="M7.2,13.2H1c-0.6,0-1-0.5-1-1.1c0-0.5,0.5-1,1-1h6.2c0.6,0,1.1,0.4,1.1,1S7.9,13.2,7.2,13.2
			C7.3,13.2,7.2,13.2,7.2,13.2z"/>
		<path id="線_196" class="st0" d="M4.1,16.3c-0.6,0-1-0.5-1-1V9.1c0-0.6,0.5-1,1.1-1c0.5,0,1,0.5,1,1v6.2
			C5.2,15.8,4.7,16.3,4.1,16.3z"/>
	</g>
	<path id="パス_3644" class="st0" d="M15.6,36.3c-0.6,0-1-0.5-1-1V32c0-1.2,0.9-2.1,2.1-2.1h7.5c0.6,0,1,0.5,1,1.1
		c0,0.5-0.5,1-1,1h-7.5c0,0,0,0,0,0l0,0v3.2C16.6,35.8,16.2,36.3,15.6,36.3z"/>
	<path id="パス_3645" class="st0" d="M17.5,42.8h-4.3c-1.2,0-2.1-0.9-2.1-2.1v-3.2c0-1.2,0.9-2.1,2.1-2.1h9.7c0.6,0,1,0.5,1,1.1
		c0,0.5-0.5,1-1,1h-9.7c0,0,0,0,0,0l0,0v3.2c0,0,0,0,0,0h0h4.3c0.6,0,1.1,0.4,1.1,1C18.6,42.3,18.2,42.8,17.5,42.8
		C17.6,42.8,17.6,42.8,17.5,42.8z"/>
	<path id="パス_3646" class="st0" d="M26.4,48.2h-9.7c-1.2,0-2.1-0.9-2.1-2.1v-3.2c0-1.2,0.9-2.1,2.1-2.1h6.5c0.6,0,1.1,0.4,1.1,1
		c0,0.6-0.4,1.1-1,1.1c0,0,0,0-0.1,0h-6.5c0,0,0,0,0,0l0,0V46c0,0,0,0,0,0l0,0h9.7c0.6,0,1.1,0.4,1.1,1
		C27.5,47.7,27.1,48.1,26.4,48.2C26.5,48.2,26.4,48.2,26.4,48.2z"/>
	<path id="パス_3647" class="st0" d="M27.8,32c-0.6,0-1-0.5-1-1c0,0,0,0,0,0v-4.3c0,0,0,0,0,0h0h-9.6c-0.6,0-1.1-0.4-1.1-1
		s0.4-1.1,1-1.1c0,0,0,0,0.1,0h9.6c1.2,0,2.1,0.9,2.1,2.1V31C28.9,31.5,28.4,32,27.8,32z"/>
	<path id="パス_3648" class="st0" d="M16.4,32h-3.2c-1.2,0-2.1-0.9-2.1-2.1v-3.2c0-1.2,0.9-2.1,2.1-2.1h5.4c0.6,0,1.1,0.4,1.1,1
		s-0.4,1.1-1,1.1c0,0,0,0-0.1,0h-5.4c0,0,0,0,0,0l0,0v3.2c0,0,0,0,0,0h0h3.2c0.6,0,1,0.5,1,1.1C17.4,31.5,16.9,32,16.4,32z"/>
	<g id="Group_3234" transform="translate(26.237 23.513)">
		<path id="楕円形_62" class="st0" d="M8.3,8c4.6,0,8.3,3.7,8.3,8.3s-3.7,8.3-8.3,8.3S0,20.9,0,16.3C0,11.7,3.7,8,8.3,8z
			 M8.3,22.5c3.4,0,6.2-2.8,6.2-6.2s-2.8-6.2-6.2-6.2S2,12.9,2,16.3C2,19.7,4.8,22.5,8.3,22.5z"/>
		<path id="パス_3649" class="st0" d="M8.5,15.5c-1.5,0-2.8-1-3.2-2.4c-0.1-0.6,0.2-1.1,0.8-1.2c0.5-0.1,1,0.2,1.2,0.7
			c0.2,0.6,0.8,1,1.5,0.8c0.4-0.1,0.7-0.4,0.8-0.8c0.1-0.6,0.7-0.9,1.2-0.8c0.6,0.1,0.9,0.7,0.8,1.2c0,0,0,0.1,0,0.1
			C11.2,14.5,10,15.5,8.5,15.5z"/>
		<path id="線_197" class="st0" d="M10.5,18.4H6.4c-0.6,0-1-0.5-1-1.1c0-0.5,0.5-1,1-1h4.1c0.6,0,1.1,0.4,1.1,1
			S11.1,18.4,10.5,18.4C10.5,18.4,10.5,18.4,10.5,18.4z"/>
		<path id="線_198" class="st0" d="M8.3,20.5c-0.6,0-1-0.5-1-1v-4.1c0-0.6,0.5-1,1.1-1c0.5,0,1,0.5,1,1v4.1
			C9.3,20,8.9,20.5,8.3,20.5z"/>
	</g>
</g>
</svg>
