<svg xmlns="http://www.w3.org/2000/svg" width="23" height="23" viewBox="0 0 23 23">
  <g id="カレンダーのフリーアイコン2" transform="translate(-7.073)">
    <path id="Path_3689" data-name="Path 3689" d="M121.918,6.066a1.7,1.7,0,0,0,1.7-1.7V1.7a1.7,1.7,0,0,0-3.395,0V4.368A1.7,1.7,0,0,0,121.918,6.066Z" transform="translate(-108.105)" fill="#707070"/>
    <path id="Path_3690" data-name="Path 3690" d="M335.541,6.066a1.7,1.7,0,0,0,1.7-1.7V1.7a1.7,1.7,0,0,0-3.395,0V4.368A1.7,1.7,0,0,0,335.541,6.066Z" transform="translate(-312.207)" fill="#707070"/>
    <path id="Path_3691" data-name="Path 3691" d="M26.85,41.287h-.828v1.454a2.518,2.518,0,0,1-5.029,0V41.287h-4.84v1.454a2.518,2.518,0,0,1-5.029,0V41.287H10.3a3.14,3.14,0,0,0-3.223,3.05v14.48a3.14,3.14,0,0,0,3.223,3.05H26.85a3.14,3.14,0,0,0,3.223-3.05V44.337A3.14,3.14,0,0,0,26.85,41.287Zm.686,17A1.457,1.457,0,0,1,26.043,59.7H11.1a1.457,1.457,0,0,1-1.494-1.414V46.953H27.537V58.282Z" transform="translate(0 -38.868)" fill="#707070"/>
    <rect id="Rectangle_5499" data-name="Rectangle 5499" width="2.999" height="3" transform="translate(15.297 16.136)" fill="#707070"/>
    <rect id="Rectangle_5500" data-name="Rectangle 5500" width="2.999" height="2.999" transform="translate(15.297 12.692)" fill="#707070"/>
    <rect id="Rectangle_5501" data-name="Rectangle 5501" width="2.999" height="3" transform="translate(11.744 16.136)" fill="#707070"/>
    <rect id="Rectangle_5502" data-name="Rectangle 5502" width="2.999" height="2.999" transform="translate(11.744 12.692)" fill="#707070"/>
    <rect id="Rectangle_5503" data-name="Rectangle 5503" width="2.999" height="2.999" transform="translate(22.403 9.248)" fill="#707070"/>
    <rect id="Rectangle_5504" data-name="Rectangle 5504" width="3" height="2.999" transform="translate(18.85 9.248)" fill="#707070"/>
    <rect id="Rectangle_5505" data-name="Rectangle 5505" width="3" height="2.999" transform="translate(18.85 12.692)" fill="#707070"/>
    <rect id="Rectangle_5506" data-name="Rectangle 5506" width="2.999" height="3" transform="translate(22.403 16.136)" fill="#707070"/>
    <rect id="Rectangle_5507" data-name="Rectangle 5507" width="2.999" height="2.999" transform="translate(22.403 12.692)" fill="#707070"/>
    <rect id="Rectangle_5508" data-name="Rectangle 5508" width="3" height="3" transform="translate(18.85 16.136)" fill="#707070"/>
    <rect id="Rectangle_5509" data-name="Rectangle 5509" width="2.999" height="2.999" transform="translate(15.297 9.248)" fill="#707070"/>
    <rect id="Rectangle_5510" data-name="Rectangle 5510" width="2.999" height="2.999" transform="translate(11.744 9.248)" fill="#707070"/>
  </g>
</svg>
