<svg id="Group_72" data-name="Group 72" xmlns="http://www.w3.org/2000/svg" width="47.204" height="47.205" viewBox="0 0 47.204 47.205">
  <path id="Path_284" data-name="Path 284" d="M78.753,741.874a1.1,1.1,0,0,1,2.144.335,1.067,1.067,0,1,0,2.135,0,3.235,3.235,0,0,0-2.165-3.048v-.875a1.067,1.067,0,1,0-2.135,0v.875a3.235,3.235,0,0,0-2.165,3.048,1.067,1.067,0,0,0,.257.695l4.982,5.808a2.038,2.038,0,0,1-4.045-.358,1.067,1.067,0,1,0-2.135,0,4.177,4.177,0,0,0,3.105,4.029v.833a1.067,1.067,0,1,0,2.135,0v-.833a4.177,4.177,0,0,0,3.106-4.029,1.066,1.066,0,0,0-.257-.7Z" transform="translate(-56.196 -717.01)" fill="#fff"/>
  <path id="Path_285" data-name="Path 285" d="M160.306,675.791h4.159a1.067,1.067,0,0,0,0-2.135h-4.159a1.067,1.067,0,1,0,0,2.135" transform="translate(-118.328 -669.777)" fill="#fff"/>
  <path id="Path_286" data-name="Path 286" d="M151.646,693.969h-8.591a1.067,1.067,0,1,0,0,2.135h8.591a1.067,1.067,0,1,0,0-2.135" transform="translate(-105.509 -684.871)" fill="#fff"/>
  <path id="Path_287" data-name="Path 287" d="M164.465,714.281h-4.159a1.068,1.068,0,0,0,0,2.135h4.159a1.068,1.068,0,0,0,0-2.135" transform="translate(-118.328 -699.965)" fill="#fff"/>
  <path id="Path_288" data-name="Path 288" d="M1.067,675.791H5.226a1.067,1.067,0,1,0,0-2.135H1.067a1.067,1.067,0,1,0,0,2.135" transform="translate(0 -669.777)" fill="#fff"/>
  <path id="Path_289" data-name="Path 289" d="M1.067,696.1H9.658a1.067,1.067,0,0,0,0-2.135H1.067a1.067,1.067,0,1,0,0,2.135" transform="translate(0 -684.871)" fill="#fff"/>
  <path id="Path_290" data-name="Path 290" d="M1.067,716.416H5.226a1.067,1.067,0,1,0,0-2.135H1.067a1.067,1.067,0,1,0,0,2.135" transform="translate(0 -699.965)" fill="#fff"/>
  <path id="Path_291" data-name="Path 291" d="M30.519,669.989,35.4,660.9a1.067,1.067,0,0,0-.283-1.346,4.061,4.061,0,0,0-2.723-.993,4.207,4.207,0,0,0-2.86,1.1,2.16,2.16,0,0,1-3.069,0,4.267,4.267,0,0,0-5.721,0,2.161,2.161,0,0,1-3.07,0,4.211,4.211,0,0,0-2.861-1.1,4.064,4.064,0,0,0-2.723.993,1.067,1.067,0,0,0-.283,1.346l4.88,9.092c-2.256,2.481-12.341,12.9-13.3,13.912A12.659,12.659,0,0,0,0,692.679a13.1,13.1,0,0,0,13.083,13.083H34.121A13.1,13.1,0,0,0,47.2,692.679a12.659,12.659,0,0,0-3.382-8.778c-.962-1.015-11.047-11.431-13.3-13.912m-15.707-9.3a2.115,2.115,0,0,1,1.536.64,4.267,4.267,0,0,0,5.721,0,2.161,2.161,0,0,1,3.07,0,4.265,4.265,0,0,0,5.72,0,2.111,2.111,0,0,1,1.534-.64,2.085,2.085,0,0,1,.645.088l-4.454,8.3H18.62l-4.453-8.3a2.083,2.083,0,0,1,.645-.088m19.309,42.935H13.083A10.961,10.961,0,0,1,2.135,692.679a10.536,10.536,0,0,1,2.8-7.31c.955-1.007,11.273-11.663,13.526-14.156H28.747C31,673.707,41.319,684.363,42.273,685.37a10.536,10.536,0,0,1,2.8,7.31,10.961,10.961,0,0,1-10.948,10.948" transform="translate(0 -658.558)" fill="#fff"/>
  <path id="Path_292" data-name="Path 292" d="M26.805,780.661a6.211,6.211,0,0,1-6.2-6.2,5.819,5.819,0,0,1,1.5-4.045,1.068,1.068,0,0,0-1.549-1.469,7.94,7.94,0,0,0-2.081,5.514,8.349,8.349,0,0,0,8.339,8.339,1.067,1.067,0,1,0,0-2.135" transform="translate(-13.722 -740.335)" fill="#fff"/>
  <path id="Path_293" data-name="Path 293" d="M134.472,768.9a1.068,1.068,0,0,0-.04,1.509,5.819,5.819,0,0,1,1.5,4.045,6.211,6.211,0,0,1-6.2,6.2,1.067,1.067,0,1,0,0,2.135,8.349,8.349,0,0,0,8.339-8.339,7.939,7.939,0,0,0-2.081-5.514,1.067,1.067,0,0,0-1.509-.04" transform="translate(-95.602 -740.335)" fill="#fff"/>
</svg>
