<svg id="Group_2890" data-name="Group 2890" xmlns="http://www.w3.org/2000/svg" width="47.205" height="47.205" viewBox="0 0 47.205 47.205">
  <path id="Path_242" data-name="Path 242" d="M701.138,333.908a1.067,1.067,0,0,0-1.067,1.067v4.605h-2.613v-6.168l2.241-3.032a1.066,1.066,0,0,0,.209-.635V325.5a1.067,1.067,0,0,0-1.068-1.067H672.048a1.067,1.067,0,0,0-1.068,1.067v4.246a1.069,1.069,0,0,0,.209.635l2.241,3.032v14.56l-4.2,7.824a1.07,1.07,0,0,0-.127.5v7.46a1.076,1.076,0,0,0,.059.351l2.372,6.81a1.068,1.068,0,0,0,1.008.716h25.794a1.068,1.068,0,0,0,1.008-.716l2.372-6.81a1.076,1.076,0,0,0,.059-.351V356.3a1.069,1.069,0,0,0-.127-.5l-4.2-7.824v-6.257h3.68a1.068,1.068,0,0,0,1.068-1.068v-5.673a1.067,1.067,0,0,0-1.068-1.067m-5.815,13.259H675.566V334.129h19.758Zm-22.208-20.6h24.658V329.4l-1.921,2.6H675.037l-1.921-2.6ZM697.583,369.5H673.306l-2.063-5.923v-6.21h7.878a1.067,1.067,0,1,0,0-2.135h-7.163l3.181-5.932h20.61l3.181,5.932h-7.163a1.067,1.067,0,1,0,0,2.135h7.878v6.21Z" transform="translate(-669.108 -324.434)" fill="#fff"/>
  <path id="Path_243" data-name="Path 243" d="M705.467,380.148h12.4a1.067,1.067,0,0,0,1.068-1.068V373.4a1.067,1.067,0,0,0-1.068-1.068h-12.4A1.067,1.067,0,0,0,704.4,373.4v5.685a1.067,1.067,0,0,0,1.067,1.068m1.068-5.685H716.8v3.55H706.535Z" transform="translate(-695.333 -360.023)" fill="#fff"/>
  <path id="Path_244" data-name="Path 244" d="M699.139,466.6a1.067,1.067,0,0,0-1.068,1.068v2.819a1.068,1.068,0,0,0,2.135,0V467.67a1.067,1.067,0,0,0-1.068-1.068" transform="translate(-690.63 -430.077)" fill="#fff"/>
  <path id="Path_245" data-name="Path 245" d="M719.451,466.6a1.067,1.067,0,0,0-1.068,1.068v2.819a1.067,1.067,0,1,0,2.135,0V467.67a1.067,1.067,0,0,0-1.067-1.068" transform="translate(-705.724 -430.077)" fill="#fff"/>
  <path id="Path_246" data-name="Path 246" d="M739.764,466.6a1.067,1.067,0,0,0-1.068,1.068v2.819a1.068,1.068,0,0,0,2.135,0V467.67a1.067,1.067,0,0,0-1.068-1.068" transform="translate(-720.818 -430.077)" fill="#fff"/>
  <path id="Path_247" data-name="Path 247" d="M760.076,466.6a1.067,1.067,0,0,0-1.068,1.068v2.819a1.067,1.067,0,1,0,2.135,0V467.67a1.067,1.067,0,0,0-1.067-1.068" transform="translate(-735.912 -430.077)" fill="#fff"/>
  <path id="Path_248" data-name="Path 248" d="M819.748,329.89H822v2.253a1.067,1.067,0,1,0,2.135,0V329.89h2.253a1.068,1.068,0,1,0,0-2.135h-2.253V325.5a1.067,1.067,0,1,0-2.135,0v2.253h-2.253a1.068,1.068,0,1,0,0,2.135" transform="translate(-780.253 -324.434)" fill="#fff"/>
  <path id="Path_249" data-name="Path 249" d="M801.049,410.157a2.135,2.135,0,1,0,2.135,2.135,2.137,2.137,0,0,0-2.135-2.135" transform="translate(-765.565 -388.133)" fill="#fff"/>
  <path id="Path_250" data-name="Path 250" d="M827.726,381.371a2.135,2.135,0,1,0,2.135-2.135,2.137,2.137,0,0,0-2.135,2.135" transform="translate(-786.974 -365.156)" fill="#fff"/>
  <path id="Path_251" data-name="Path 251" d="M823.07,443.74a4.388,4.388,0,1,0,4.388,4.388,4.393,4.393,0,0,0-4.388-4.388m0,6.642a2.253,2.253,0,1,1,2.253-2.253,2.256,2.256,0,0,1-2.253,2.253" transform="translate(-780.253 -413.088)" fill="#fff"/>
</svg>
