<svg xmlns="http://www.w3.org/2000/svg" width="23" height="23" viewBox="0 0 23 23">
  <g id="Group_3504" data-name="Group 3504" transform="translate(-815 -456)">
    <rect id="Rectangle_5456" data-name="Rectangle 5456" width="0.958" height="1.438" transform="translate(826.021 460.073)" fill="#fff"/>
    <rect id="Rectangle_5457" data-name="Rectangle 5457" width="1.438" height="0.958" transform="translate(832.49 467.021)" fill="#fff"/>
    <rect id="Rectangle_5458" data-name="Rectangle 5458" width="0.958" height="1.438" transform="translate(826.021 473.49)" fill="#fff"/>
    <rect id="Rectangle_5459" data-name="Rectangle 5459" width="1.438" height="0.958" transform="translate(819.073 467.021)" fill="#fff"/>
    <path id="Path_3597" data-name="Path 3597" d="M25.007,14.818a.481.481,0,1,0-.68-.68l-.474.474-3.5,3.5h0l-2.535-2.535a.479.479,0,1,0-.678.678l2.535,2.535h0l-.618.618a.483.483,0,0,0,0,.68.486.486,0,0,0,.68,0l.62-.62.618.618a.479.479,0,0,0,.678-.678l-.618-.618,3.749-3.749Z" transform="translate(806.146 448.709)" fill="#fff"/>
    <path id="Path_3598" data-name="Path 3598" d="M11.5,2.4a9.018,9.018,0,0,1,4.351,1.112,8.676,8.676,0,0,1,1.672,1.174L16.052,5.7l3.541,1.644,1.73.8-.264-3.033L20.825,2.4l-1.289.891A11.089,11.089,0,0,0,18,2.022,11.492,11.492,0,0,0,0,11.5H2.4a9.112,9.112,0,0,1,9.1-9.1" transform="translate(815 456)" fill="#fff"/>
    <path id="Path_3599" data-name="Path 3599" d="M22.427,24a9.008,9.008,0,0,1-.479,2.909,9.11,9.11,0,0,1-8.625,6.2,9.018,9.018,0,0,1-4.351-1.112A8.676,8.676,0,0,1,7.3,30.819L8.771,29.8,5.23,28.159l-.7-.326L3.5,27.354l.043.479.22,2.554L4,33.1l1.289-.891a11.089,11.089,0,0,0,1.533,1.265,11.486,11.486,0,0,0,17.341-5.645A11.306,11.306,0,0,0,24.823,24Z" transform="translate(813.177 443.5)" fill="#fff"/>
  </g>
</svg>
