<svg id="Group_67" data-name="Group 67" xmlns="http://www.w3.org/2000/svg" width="47.205" height="47.205" viewBox="0 0 47.205 47.205">
  <path id="Path_191" data-name="Path 191" d="M1040.03,0H999.7a3.444,3.444,0,0,0-3.439,3.44V22.6a3.444,3.444,0,0,0,3.439,3.44h40.326a3.444,3.444,0,0,0,3.44-3.44V3.441A3.444,3.444,0,0,0,1040.03,0m1.3,22.595a1.306,1.306,0,0,1-1.3,1.3h-12.058V22.036a1.067,1.067,0,0,0-2.135,0V23.9H1013.9V22.036a1.068,1.068,0,0,0-2.135,0V23.9H999.7a1.306,1.306,0,0,1-1.3-1.3V3.441a1.306,1.306,0,0,1,1.3-1.3h12.058V4a1.068,1.068,0,0,0,2.135,0V2.136h11.939V4a1.067,1.067,0,1,0,2.135,0V2.136h12.058a1.306,1.306,0,0,1,1.3,1.3Z" transform="translate(-996.265 -0.001)" fill="#fff"/>
  <path id="Path_192" data-name="Path 192" d="M1024.7,25.185h-5.876a1.067,1.067,0,0,0-1.068,1.067v1.429a1.068,1.068,0,0,0,2.135,0V27.32h3.741v2.726a8.282,8.282,0,0,0-3.887,7.165,1.068,1.068,0,0,0,2.135,0,6.165,6.165,0,0,1,3.264-5.572,1.068,1.068,0,0,0,.624-.971V26.252a1.067,1.067,0,0,0-1.068-1.067" transform="translate(-1012.237 -18.715)" fill="#fff"/>
  <path id="Path_193" data-name="Path 193" d="M1079.486,25.185h-5.876a1.067,1.067,0,0,0-1.068,1.067v1.429a1.068,1.068,0,0,0,2.135,0V27.32h3.741v2.726a8.282,8.282,0,0,0-3.887,7.165,1.067,1.067,0,1,0,2.135,0,6.165,6.165,0,0,1,3.264-5.572,1.068,1.068,0,0,0,.624-.971V26.252a1.067,1.067,0,0,0-1.068-1.067" transform="translate(-1052.945 -18.715)" fill="#fff"/>
  <path id="Path_194" data-name="Path 194" d="M1134.267,25.185h-5.876a1.067,1.067,0,0,0-1.068,1.067v1.429a1.068,1.068,0,0,0,2.135,0V27.32h3.741v2.726a8.281,8.281,0,0,0-3.887,7.165,1.067,1.067,0,1,0,2.135,0,6.165,6.165,0,0,1,3.264-5.572,1.067,1.067,0,0,0,.623-.971V26.252a1.067,1.067,0,0,0-1.067-1.067" transform="translate(-1093.651 -18.715)" fill="#fff"/>
  <path id="Path_195" data-name="Path 195" d="M1019.692,125.417h-5.107a1.067,1.067,0,0,0,0,2.135h5.107a1.067,1.067,0,1,0,0-2.135" transform="translate(-1009.085 -93.195)" fill="#fff"/>
  <path id="Path_196" data-name="Path 196" d="M1006.872,145.729h-9.54a1.067,1.067,0,1,0,0,2.135h9.54a1.067,1.067,0,1,0,0-2.135" transform="translate(-996.265 -108.289)" fill="#fff"/>
  <path id="Path_197" data-name="Path 197" d="M1019.692,166.041h-5.107a1.067,1.067,0,0,0,0,2.135h5.107a1.067,1.067,0,1,0,0-2.135" transform="translate(-1009.085 -123.382)" fill="#fff"/>
  <path id="Path_198" data-name="Path 198" d="M1135.627,127.551h5.107a1.067,1.067,0,0,0,0-2.135h-5.107a1.067,1.067,0,1,0,0,2.135" transform="translate(-1099.03 -93.195)" fill="#fff"/>
  <path id="Path_199" data-name="Path 199" d="M1145.167,145.729h-9.539a1.067,1.067,0,1,0,0,2.135h9.539a1.067,1.067,0,1,0,0-2.135" transform="translate(-1099.03 -108.289)" fill="#fff"/>
  <path id="Path_200" data-name="Path 200" d="M1140.736,166.041h-5.107a1.067,1.067,0,0,0,0,2.135h5.107a1.067,1.067,0,1,0,0-2.135" transform="translate(-1099.03 -123.382)" fill="#fff"/>
  <path id="Path_201" data-name="Path 201" d="M1070.019,121.871l-4.988-.725-2.231-4.52a1.067,1.067,0,0,0-1.914,0l-2.23,4.52-4.988.725a1.068,1.068,0,0,0-.591,1.821l3.609,3.518-.852,4.968a1.067,1.067,0,0,0,1.549,1.125l4.461-2.345,4.461,2.345a1.067,1.067,0,0,0,1.549-1.125L1067,127.21l3.609-3.518a1.067,1.067,0,0,0-.591-1.821m-4.91,4.2a1.068,1.068,0,0,0-.307.945l.582,3.389-3.044-1.6a1.065,1.065,0,0,0-.993,0l-3.044,1.6.581-3.389a1.067,1.067,0,0,0-.307-.945l-2.462-2.4,3.4-.495a1.067,1.067,0,0,0,.8-.584l1.522-3.084,1.522,3.084a1.067,1.067,0,0,0,.8.584l3.4.495Z" transform="translate(-1038.241 -86.221)" fill="#fff"/>
</svg>
