<svg xmlns="http://www.w3.org/2000/svg" width="36.49" height="36.529" viewBox="0 0 36.49 36.529">
  <path id="Path_576" data-name="Path 576" d="M4768.021,257.878c0,3.447.042,6.9-.01,10.341-.078,5.151-2.667,7.764-7.827,7.806q-10.34.086-20.683,0c-5.277-.038-7.893-2.677-7.923-7.96q-.056-10.341,0-20.683c.038-5.112,2.7-7.764,7.84-7.806q10.34-.085,20.683,0c5.29.038,7.848,2.642,7.908,7.96C4768.053,250.983,4768.021,254.431,4768.021,257.878Zm-31.669-3.81c-1.255.01-1.541.413-1.524,1.578.059,4.212-.03,8.425.042,12.637.051,3,1.4,4.393,4.351,4.418q10.568.089,21.138,0c2.994-.024,4.292-1.38,4.35-4.388.06-3.139.014-8.5.014-11.645.017-2.76-1.3-2.553-1.3-2.553s-1.5-.006-4.137-.006c1.32,4.693.237,8.991-3.768,11.858a9.228,9.228,0,0,1-10.8.4c-4.545-2.811-5.74-7.066-4.342-12.281C4738.577,254.057,4737.834,254.057,4736.352,254.068Zm19.889,3.891a6.429,6.429,0,1,0-6.361,6.268A6.515,6.515,0,0,0,4756.241,257.959Zm3.982-8.014c3.563,0,3.563,0,3.564-2.716,0-3.568,0-3.568-2.727-3.569-3.417,0-3.417,0-3.417,3.08C4757.644,249.944,4757.644,249.944,4760.223,249.945Z" transform="translate(-4731.547 -239.537)" fill="#b3b3b3"/>
</svg>
