<svg xmlns="http://www.w3.org/2000/svg" width="39" height="40" viewBox="0 0 39 40">
  <g id="Group_2996" data-name="Group 2996" transform="translate(-0.422 0.223)">
    <ellipse id="Ellipse_49" data-name="Ellipse 49" cx="19.5" cy="20" rx="19.5" ry="20" transform="translate(0.421 -0.223)" fill="#4cc764"/>
    <g id="Group_553" data-name="Group 553" transform="translate(7.182 7.69)">
      <g id="Group_552" data-name="Group 552" transform="translate(0)">
        <g id="Group_550" data-name="Group 550">
          <path id="Path_847" data-name="Path 847" d="M879.854,514.865c0-5.991-6.006-10.865-13.388-10.865s-13.388,4.874-13.388,10.865c0,5.371,4.763,9.869,11.2,10.719.436.094,1.029.288,1.179.66a2.749,2.749,0,0,1,.043,1.211s-.157.945-.191,1.146c-.058.338-.269,1.324,1.16.722s7.71-4.54,10.519-7.773h0A9.667,9.667,0,0,0,879.854,514.865Z" transform="translate(-853.078 -504)" fill="#fff"/>
        </g>
        <g id="Group_551" data-name="Group 551" transform="translate(4.392 7.97)">
          <path id="Path_848" data-name="Path 848" d="M1003.139,573.939a.256.256,0,0,0,.256-.256v-.95a.256.256,0,0,0-.256-.256h-2.556v-.986h2.556a.255.255,0,0,0,.256-.256v-.95a.256.256,0,0,0-.256-.256h-2.556v-.986h2.556a.255.255,0,0,0,.256-.256v-.95a.256.256,0,0,0-.256-.255h-3.761a.256.256,0,0,0-.256.255v.006h0v5.833h0v0a.256.256,0,0,0,.256.256h3.761Z" transform="translate(-985.208 -567.585)" fill="#4cc764"/>
          <path id="Path_849" data-name="Path 849" d="M892.135,573.939a.256.256,0,0,0,.256-.256v-.95a.256.256,0,0,0-.256-.256h-2.556v-4.638a.256.256,0,0,0-.256-.255h-.949a.255.255,0,0,0-.255.255v5.839h0v0a.256.256,0,0,0,.255.256h3.761Z" transform="translate(-888.118 -567.585)" fill="#4cc764"/>
          <rect id="Rectangle_81" data-name="Rectangle 81" width="1.461" height="6.354" rx="0.73" transform="translate(5.076)" fill="#4cc764"/>
          <path id="Path_850" data-name="Path 850" d="M952.85,567.585H951.9a.256.256,0,0,0-.256.255v3.471l-2.673-3.61a.276.276,0,0,0-.021-.026l0,0-.015-.016,0,0-.014-.012-.007-.005-.013-.009-.008,0-.014-.008-.008,0-.015-.006-.008,0-.016-.005-.009,0-.015,0-.011,0-.014,0h-.967a.256.256,0,0,0-.255.255v5.843a.256.256,0,0,0,.255.256h.95a.256.256,0,0,0,.255-.256v-3.47l2.677,3.615a.255.255,0,0,0,.066.064l0,0,.016.01.008,0,.012.006.012.006.008,0,.017.006h0a.262.262,0,0,0,.067.009h.944a.256.256,0,0,0,.256-.256v-5.843A.256.256,0,0,0,952.85,567.585Z" transform="translate(-940.105 -567.585)" fill="#4cc764"/>
        </g>
      </g>
    </g>
  </g>
</svg>
