<svg xmlns="http://www.w3.org/2000/svg" width="40" height="40" viewBox="0 0 40 40">
  <g id="Group_2994" data-name="Group 2994" transform="translate(0.291 0.223)">
    <g id="Dark_Blue" data-name="Dark Blue" transform="translate(0 0)">
      <circle id="Ellipse_50" data-name="Ellipse 50" cx="20" cy="20" r="20" transform="translate(-0.291 -0.223)" fill="#1d9bf0"/>
    </g>
    <g id="Logo_FIXED" data-name="Logo — FIXED" transform="translate(8.965 11.178)">
      <path id="Path_851" data-name="Path 851" d="M96.9,133.639A13.648,13.648,0,0,0,110.645,119.9c0-.209,0-.417-.014-.624a9.827,9.827,0,0,0,2.409-2.5,9.642,9.642,0,0,1-2.774.76,4.847,4.847,0,0,0,2.124-2.672,9.679,9.679,0,0,1-3.067,1.172,4.834,4.834,0,0,0-8.231,4.4,13.712,13.712,0,0,1-9.955-5.046,4.834,4.834,0,0,0,1.5,6.448,4.8,4.8,0,0,1-2.188-.6c0,.02,0,.04,0,.062a4.832,4.832,0,0,0,3.875,4.735,4.821,4.821,0,0,1-2.181.083,4.835,4.835,0,0,0,4.512,3.355,9.691,9.691,0,0,1-6,2.068,9.84,9.84,0,0,1-1.152-.067,13.673,13.673,0,0,0,7.4,2.169" transform="translate(-89.5 -114.507)" fill="#fff"/>
    </g>
  </g>
</svg>
