<svg xmlns="http://www.w3.org/2000/svg" width="38.277" height="31.293" viewBox="0 0 38.277 31.293">
  <g id="Group_758" data-name="Group 758" transform="translate(0)">
    <g id="Group_757" data-name="Group 757" transform="translate(0 0)">
      <path id="Path_573" data-name="Path 573" d="M4724.128,1143.2a18.748,18.748,0,0,0,2.739,0,15.39,15.39,0,0,0,2.979-.532,15.981,15.981,0,0,0,4.491-2.039,7.847,7.847,0,0,0,1.045-.786,8.015,8.015,0,0,1-4.547-1.569,7.785,7.785,0,0,1-2.792-3.9,7.821,7.821,0,0,0,3.389-.117c-.008-.137-3.67-1.217-5.125-3.874a7.923,7.923,0,0,1-1.056-3.856c-.006-.2.112-.094.173-.062a7.814,7.814,0,0,0,2.457.809c.277.045.561.047.877.071-3.54-2.915-4.3-6.407-2.429-10.562.492.536.929,1.033,1.388,1.509a22.551,22.551,0,0,0,10.195,6.01,22.4,22.4,0,0,0,4.467.742c.292.018.319-.089.278-.329a7.685,7.685,0,0,1,2.65-7.495,7.5,7.5,0,0,1,5.627-1.833,7.641,7.641,0,0,1,5.046,2.288.442.442,0,0,0,.469.113,15.686,15.686,0,0,0,4.308-1.625c.1-.054.2-.095.389-.184a8.1,8.1,0,0,1-3.3,4.251,14.146,14.146,0,0,0,4.278-1.1,4.2,4.2,0,0,1-.672.99,14.8,14.8,0,0,1-2.879,2.791.6.6,0,0,0-.27.565,21.981,21.981,0,0,1-.756,6.411,23.546,23.546,0,0,1-4.069,8.288,21.524,21.524,0,0,1-5.064,4.787,20.726,20.726,0,0,1-4.8,2.41,23.313,23.313,0,0,1-4.851,1.12,24.257,24.257,0,0,1-4.733.1,21.631,21.631,0,0,1-5.851-1.267,22.715,22.715,0,0,1-4.126-1.994,1.153,1.153,0,0,1-.137-.116A.224.224,0,0,1,4724.128,1143.2Z" transform="translate(-4723.849 -1115.368)" fill="#b3b3b3"/>
      <path id="Path_574" data-name="Path 574" d="M4723.6,1361.26l-.209.013c-.028,0-.069,0-.079-.015s.011-.05.041-.048A.4.4,0,0,1,4723.6,1361.26Z" transform="translate(-4723.306 -1333.453)" fill="#b3b3b3"/>
    </g>
  </g>
</svg>
